<?xml version="1.0" encoding="UTF-8"?>
<svg id="_レイヤー_1" data-name="レイヤー 1" xmlns="http://www.w3.org/2000/svg" xmlns:xlink="http://www.w3.org/1999/xlink" viewBox="0 0 1115.32 293.45">
  <defs>
    <style>
      .cls-1 {
        fill: url(#_新規グラデーションスウォッチ_2-12);
      }

      .cls-1, .cls-2, .cls-3, .cls-4, .cls-5, .cls-6, .cls-7, .cls-8, .cls-9, .cls-10, .cls-11, .cls-12, .cls-13, .cls-14, .cls-15, .cls-16, .cls-17, .cls-18, .cls-19, .cls-20, .cls-21, .cls-22, .cls-23, .cls-24, .cls-25, .cls-26, .cls-27, .cls-28, .cls-29, .cls-30, .cls-31, .cls-32, .cls-33, .cls-34, .cls-35, .cls-36, .cls-37, .cls-38, .cls-39, .cls-40, .cls-41, .cls-42, .cls-43, .cls-44, .cls-45, .cls-46, .cls-47, .cls-48, .cls-49, .cls-50 {
        stroke-width: 0px;
      }

      .cls-2 {
        fill: url(#_新規グラデーションスウォッチ_2-11);
      }

      .cls-3 {
        fill: url(#_新規グラデーションスウォッチ_2-10);
      }

      .cls-4 {
        fill: url(#_新規グラデーションスウォッチ_2-16);
      }

      .cls-5 {
        fill: url(#_新規グラデーションスウォッチ_2-13);
      }

      .cls-6 {
        fill: url(#_新規グラデーションスウォッチ_2-14);
      }

      .cls-7 {
        fill: url(#_新規グラデーションスウォッチ_2-15);
      }

      .cls-51 {
        stroke: #e60012;
        stroke-miterlimit: 10;
        stroke-width: 1.5px;
      }

      .cls-51, .cls-8 {
        fill: none;
      }

      .cls-52 {
        clip-path: url(#clippath);
      }

      .cls-9 {
        fill: url(#_新規グラデーションスウォッチ_1);
      }

      .cls-10 {
        fill: url(#_新規グラデーションスウォッチ_4);
      }

      .cls-11 {
        fill: url(#_新規グラデーションスウォッチ_2);
      }

      .cls-12 {
        fill: url(#_新規グラデーションスウォッチ_5);
      }

      .cls-13 {
        fill: url(#_新規グラデーションスウォッチ_6);
      }

      .cls-14 {
        fill: url(#_新規グラデーションスウォッチ_7);
      }

      .cls-15 {
        fill: url(#_新規グラデーションスウォッチ_3);
      }

      .cls-16 {
        fill: url(#_新規グラデーションスウォッチ_7-4);
      }

      .cls-17 {
        fill: url(#_新規グラデーションスウォッチ_7-3);
      }

      .cls-18 {
        fill: url(#_新規グラデーションスウォッチ_7-2);
      }

      .cls-19 {
        fill: url(#_新規グラデーションスウォッチ_3-5);
      }

      .cls-20 {
        fill: url(#_新規グラデーションスウォッチ_3-6);
      }

      .cls-21 {
        fill: url(#_新規グラデーションスウォッチ_3-2);
      }

      .cls-22 {
        fill: url(#_新規グラデーションスウォッチ_3-7);
      }

      .cls-23 {
        fill: url(#_新規グラデーションスウォッチ_3-4);
      }

      .cls-24 {
        fill: url(#_新規グラデーションスウォッチ_3-3);
      }

      .cls-25 {
        fill: url(#_新規グラデーションスウォッチ_3-8);
      }

      .cls-26 {
        fill: url(#_新規グラデーションスウォッチ_5-3);
      }

      .cls-27 {
        fill: url(#_新規グラデーションスウォッチ_5-2);
      }

      .cls-28 {
        fill: url(#_新規グラデーションスウォッチ_5-4);
      }

      .cls-29 {
        fill: url(#_新規グラデーションスウォッチ_4-3);
      }

      .cls-30 {
        fill: url(#_新規グラデーションスウォッチ_4-4);
      }

      .cls-31 {
        fill: url(#_新規グラデーションスウォッチ_4-2);
      }

      .cls-32 {
        fill: url(#_新規グラデーションスウォッチ_2-7);
      }

      .cls-33 {
        fill: url(#_新規グラデーションスウォッチ_2-5);
      }

      .cls-34 {
        fill: url(#_新規グラデーションスウォッチ_2-6);
      }

      .cls-35 {
        fill: url(#_新規グラデーションスウォッチ_2-4);
      }

      .cls-36 {
        fill: url(#_新規グラデーションスウォッチ_2-8);
      }

      .cls-37 {
        fill: url(#_新規グラデーションスウォッチ_2-2);
      }

      .cls-38 {
        fill: url(#_新規グラデーションスウォッチ_2-9);
      }

      .cls-39 {
        fill: url(#_新規グラデーションスウォッチ_2-3);
      }

      .cls-40 {
        fill: url(#_新規グラデーションスウォッチ_6-3);
      }

      .cls-41 {
        fill: url(#_新規グラデーションスウォッチ_6-4);
      }

      .cls-42 {
        fill: url(#_新規グラデーションスウォッチ_6-2);
      }

      .cls-43 {
        fill: url(#_新規グラデーションスウォッチ_1-2);
      }

      .cls-44 {
        fill: url(#_新規グラデーションスウォッチ_1-4);
      }

      .cls-45 {
        fill: url(#_新規グラデーションスウォッチ_1-3);
      }

      .cls-53 {
        clip-path: url(#clippath-1);
      }

      .cls-54 {
        clip-path: url(#clippath-3);
      }

      .cls-55 {
        clip-path: url(#clippath-2);
      }

      .cls-46 {
        fill: #3cbbc8;
      }

      .cls-47 {
        fill: #1d2088;
      }

      .cls-48 {
        fill: #127bb2;
      }

      .cls-49 {
        fill: #168db3;
      }

      .cls-50 {
        fill: #043d80;
      }
    </style>
    <clipPath id="clippath">
      <path class="cls-8" d="M144.41,181.57v-52.62h120.77v107.83c-23.12,15.76-43.56,26.48-61.33,32.18-17.77,5.69-38.85,8.54-63.23,8.54-30.02,0-54.49-5.11-73.41-15.36-18.92-10.24-33.59-25.47-43.99-45.72-10.41-20.24-15.61-43.48-15.61-69.7,0-27.61,5.69-51.61,17.08-72.03,11.39-20.41,28.06-35.91,50.03-46.49,17.14-8.17,40.2-12.25,69.18-12.25s48.85,2.53,62.71,7.59c13.86,5.06,25.36,12.91,34.51,23.55,9.14,10.64,16.02,24.13,20.62,40.46l-75.4,13.46c-3.11-9.54-8.37-16.85-15.79-21.91-7.42-5.06-16.88-7.59-28.38-7.59-17.14,0-30.8,5.95-40.98,17.86-10.18,11.9-15.27,30.74-15.27,56.5,0,27.37,5.15,46.93,15.44,58.66,10.29,11.73,24.64,17.6,43.04,17.6,8.74,0,17.08-1.26,25.02-3.79,7.94-2.53,17.02-6.84,27.26-12.94v-23.81h-52.28Z"/>
    </clipPath>
    <linearGradient id="_新規グラデーションスウォッチ_2" data-name="新規グラデーションスウォッチ 2" x1="1.66" y1="67.66" x2="120.99" y2="67.66" gradientUnits="userSpaceOnUse">
      <stop offset=".28" stop-color="#127bb2"/>
      <stop offset="1" stop-color="#3cbbc8"/>
    </linearGradient>
    <linearGradient id="_新規グラデーションスウォッチ_1" data-name="新規グラデーションスウォッチ 1" x1="155.37" y1="63.87" x2="238.74" y2="78.62" gradientUnits="userSpaceOnUse">
      <stop offset="0" stop-color="#168db3"/>
      <stop offset=".46" stop-color="#127bb2"/>
      <stop offset="1" stop-color="#3cbbc8"/>
    </linearGradient>
    <linearGradient id="_新規グラデーションスウォッチ_7" data-name="新規グラデーションスウォッチ 7" x1="1.66" y1="127.17" x2="91.56" y2="127.17" gradientUnits="userSpaceOnUse">
      <stop offset="0" stop-color="#1d2088"/>
      <stop offset=".78" stop-color="#080f2a"/>
    </linearGradient>
    <linearGradient id="_新規グラデーションスウォッチ_6" data-name="新規グラデーションスウォッチ 6" x1="1.66" y1="221.53" x2="91.56" y2="221.53" gradientUnits="userSpaceOnUse">
      <stop offset=".28" stop-color="#043d80"/>
      <stop offset="1" stop-color="#080f2a"/>
    </linearGradient>
    <linearGradient id="_新規グラデーションスウォッチ_2-2" data-name="新規グラデーションスウォッチ 2" y1="239.32" x2="91.56" y2="239.32" xlink:href="#_新規グラデーションスウォッチ_2"/>
    <linearGradient id="_新規グラデーションスウォッチ_2-3" data-name="新規グラデーションスウォッチ 2" x1="151.09" y1="308.47" x2="69.42" y2="235.02" xlink:href="#_新規グラデーションスウォッチ_2"/>
    <linearGradient id="_新規グラデーションスウォッチ_5" data-name="新規グラデーションスウォッチ 5" x1="176.21" y1="124.44" x2="211.51" y2="198.38" gradientUnits="userSpaceOnUse">
      <stop offset=".28" stop-color="#1d2088"/>
      <stop offset="1" stop-color="#080f2a"/>
    </linearGradient>
    <linearGradient id="_新規グラデーションスウォッチ_2-4" data-name="新規グラデーションスウォッチ 2" x1="200.24" y1="239.17" x2="291.79" y2="239.17" xlink:href="#_新規グラデーションスウォッチ_2"/>
    <linearGradient id="_新規グラデーションスウォッチ_4" data-name="新規グラデーションスウォッチ 4" x1="272.95" y1="118.76" x2="241.6" y2="68.05" gradientUnits="userSpaceOnUse">
      <stop offset=".28" stop-color="#127bb2"/>
      <stop offset="1" stop-color="#080f2a"/>
    </linearGradient>
    <linearGradient id="_新規グラデーションスウォッチ_3" data-name="新規グラデーションスウォッチ 3" x1="41.74" y1="76.32" x2="160.45" y2="187.91" gradientUnits="userSpaceOnUse">
      <stop offset=".03" stop-color="#043d80"/>
      <stop offset=".51" stop-color="#127bb2"/>
      <stop offset="1" stop-color="#168db3"/>
    </linearGradient>
    <linearGradient id="_新規グラデーションスウォッチ_3-2" data-name="新規グラデーションスウォッチ 3" x1="184.09" y1="175.89" x2="98.62" y2="133.16" xlink:href="#_新規グラデーションスウォッチ_3"/>
    <clipPath id="clippath-1">
      <path class="cls-8" d="M302.36,273.19V20.26h130.26c24.15,0,42.62,2.07,55.38,6.21,12.77,4.14,23.06,11.82,30.88,23.03,7.82,11.21,11.73,24.87,11.73,40.98,0,14.03-2.99,26.14-8.98,36.32-5.98,10.18-14.21,18.43-24.68,24.76-6.67,4.03-15.82,7.36-27.45,10.01,9.31,3.11,16.09,6.22,20.34,9.33,2.87,2.07,7.04,6.5,12.5,13.3,5.46,6.79,9.11,12.03,10.95,15.71l37.85,73.29h-88.31l-41.78-77.29c-5.29-10.01-10.01-16.5-14.15-19.49-5.64-3.91-12.02-5.87-19.15-5.87h-6.9v102.66h-78.5ZM380.86,122.74h32.95c3.56,0,10.47-1.15,20.7-3.45,5.18-1.03,9.4-3.68,12.68-7.94,3.28-4.25,4.92-9.15,4.92-14.67,0-8.16-2.59-14.43-7.76-18.81-5.18-4.37-14.9-6.56-29.16-6.56h-34.33v51.41Z"/>
    </clipPath>
    <linearGradient id="_新規グラデーションスウォッチ_2-5" data-name="新規グラデーションスウォッチ 2" x1="-234.7" y1="185.42" x2="-115.36" y2="185.42" gradientTransform="translate(326.24 411.2) rotate(-180)" xlink:href="#_新規グラデーションスウォッチ_2"/>
    <linearGradient id="_新規グラデーションスウォッチ_1-2" data-name="新規グラデーションスウォッチ 1" x1="-80.99" y1="181.63" x2="2.39" y2="196.38" gradientTransform="translate(326.24 411.2) rotate(-180)" xlink:href="#_新規グラデーションスウォッチ_1"/>
    <linearGradient id="_新規グラデーションスウォッチ_7-2" data-name="新規グラデーションスウォッチ 7" x1="-234.7" y1="244.93" x2="-144.79" y2="244.93" gradientTransform="translate(326.24 411.2) rotate(-180)" xlink:href="#_新規グラデーションスウォッチ_7"/>
    <linearGradient id="_新規グラデーションスウォッチ_6-2" data-name="新規グラデーションスウォッチ 6" x1="-234.7" y1="339.29" x2="-144.79" y2="339.29" gradientTransform="translate(326.24 411.2) rotate(-180)" xlink:href="#_新規グラデーションスウォッチ_6"/>
    <linearGradient id="_新規グラデーションスウォッチ_2-6" data-name="新規グラデーションスウォッチ 2" x1="-234.7" y1="357.08" x2="-144.79" y2="357.08" gradientTransform="translate(326.24 411.2) rotate(-180)" xlink:href="#_新規グラデーションスウォッチ_2"/>
    <linearGradient id="_新規グラデーションスウォッチ_2-7" data-name="新規グラデーションスウォッチ 2" x1="-85.26" y1="426.22" x2="-166.93" y2="352.78" gradientTransform="translate(326.24 411.2) rotate(-180)" xlink:href="#_新規グラデーションスウォッチ_2"/>
    <linearGradient id="_新規グラデーションスウォッチ_5-2" data-name="新規グラデーションスウォッチ 5" x1="-60.14" y1="242.2" x2="-24.84" y2="316.14" gradientTransform="translate(326.24 411.2) rotate(-180)" xlink:href="#_新規グラデーションスウォッチ_5"/>
    <linearGradient id="_新規グラデーションスウォッチ_2-8" data-name="新規グラデーションスウォッチ 2" x1="-36.11" y1="356.92" x2="55.44" y2="356.92" gradientTransform="translate(326.24 411.2) rotate(-180)" xlink:href="#_新規グラデーションスウォッチ_2"/>
    <linearGradient id="_新規グラデーションスウォッチ_4-2" data-name="新規グラデーションスウォッチ 4" x1="36.59" y1="236.52" x2="5.24" y2="185.81" gradientTransform="translate(326.24 411.2) rotate(-180)" xlink:href="#_新規グラデーションスウォッチ_4"/>
    <linearGradient id="_新規グラデーションスウォッチ_3-3" data-name="新規グラデーションスウォッチ 3" x1="-194.62" y1="194.08" x2="-75.9" y2="305.67" gradientTransform="translate(326.24 411.2) rotate(-180)" xlink:href="#_新規グラデーションスウォッチ_3"/>
    <linearGradient id="_新規グラデーションスウォッチ_3-4" data-name="新規グラデーションスウォッチ 3" x1="-52.26" y1="293.65" x2="-137.74" y2="250.92" gradientTransform="translate(326.24 411.2) rotate(-180)" xlink:href="#_新規グラデーションスウォッチ_3"/>
    <clipPath id="clippath-2">
      <path class="cls-8" d="M741.92,231.43h-88.73l-12.33,41.75h-79.8l95.06-252.93h85.25l95.04,252.93h-81.84l-12.66-41.75ZM725.71,176.74l-27.92-90.92-27.63,90.92h55.54Z"/>
    </clipPath>
    <linearGradient id="_新規グラデーションスウォッチ_2-9" data-name="新規グラデーションスウォッチ 2" x1="-143.17" y1="-302.67" x2="-23.83" y2="-302.67" gradientTransform="translate(471.07 144.82) rotate(90)" xlink:href="#_新規グラデーションスウォッチ_2"/>
    <linearGradient id="_新規グラデーションスウォッチ_1-3" data-name="新規グラデーションスウォッチ 1" x1="10.54" y1="-306.46" x2="93.92" y2="-291.71" gradientTransform="translate(471.07 144.82) rotate(90)" xlink:href="#_新規グラデーションスウォッチ_1"/>
    <linearGradient id="_新規グラデーションスウォッチ_7-3" data-name="新規グラデーションスウォッチ 7" x1="-143.17" y1="-243.16" x2="-53.26" y2="-243.16" gradientTransform="translate(471.07 144.82) rotate(90)" xlink:href="#_新規グラデーションスウォッチ_7"/>
    <linearGradient id="_新規グラデーションスウォッチ_6-3" data-name="新規グラデーションスウォッチ 6" x1="-143.17" y1="-148.8" x2="-53.26" y2="-148.8" gradientTransform="translate(471.07 144.82) rotate(90)" xlink:href="#_新規グラデーションスウォッチ_6"/>
    <linearGradient id="_新規グラデーションスウォッチ_2-10" data-name="新規グラデーションスウォッチ 2" x1="-143.17" y1="-131.01" x2="-53.26" y2="-131.01" gradientTransform="translate(471.07 144.82) rotate(90)" xlink:href="#_新規グラデーションスウォッチ_2"/>
    <linearGradient id="_新規グラデーションスウォッチ_2-11" data-name="新規グラデーションスウォッチ 2" x1="6.27" y1="-61.87" x2="-75.4" y2="-135.31" gradientTransform="translate(471.07 144.82) rotate(90)" xlink:href="#_新規グラデーションスウォッチ_2"/>
    <linearGradient id="_新規グラデーションスウォッチ_5-3" data-name="新規グラデーションスウォッチ 5" x1="31.39" y1="-245.89" x2="66.69" y2="-171.95" gradientTransform="translate(471.07 144.82) rotate(90)" xlink:href="#_新規グラデーションスウォッチ_5"/>
    <linearGradient id="_新規グラデーションスウォッチ_2-12" data-name="新規グラデーションスウォッチ 2" x1="55.42" y1="-131.17" x2="146.97" y2="-131.17" gradientTransform="translate(471.07 144.82) rotate(90)" xlink:href="#_新規グラデーションスウォッチ_2"/>
    <linearGradient id="_新規グラデーションスウォッチ_4-3" data-name="新規グラデーションスウォッチ 4" x1="128.12" y1="-251.57" x2="96.77" y2="-302.28" gradientTransform="translate(471.07 144.82) rotate(90)" xlink:href="#_新規グラデーションスウォッチ_4"/>
    <linearGradient id="_新規グラデーションスウォッチ_3-5" data-name="新規グラデーションスウォッチ 3" x1="-103.09" y1="-294.01" x2="15.63" y2="-182.42" gradientTransform="translate(471.07 144.82) rotate(90)" xlink:href="#_新規グラデーションスウォッチ_3"/>
    <linearGradient id="_新規グラデーションスウォッチ_3-6" data-name="新規グラデーションスウォッチ 3" x1="39.27" y1="-194.44" x2="-46.21" y2="-237.17" gradientTransform="translate(471.07 144.82) rotate(90)" xlink:href="#_新規グラデーションスウォッチ_3"/>
    <clipPath id="clippath-3">
      <path class="cls-8" d="M861.43,20.26h146.3c24.38,0,43.1,6.04,56.16,18.12,13.05,12.08,19.58,27.03,19.58,44.86,0,14.95-4.66,27.78-13.98,38.47-6.21,7.13-15.3,12.77-27.26,16.91,18.17,4.37,31.54,11.88,40.11,22.51,8.57,10.64,12.85,24.01,12.85,40.11,0,13.11-3.05,24.9-9.14,35.37-6.1,10.47-14.43,18.75-25.02,24.84-6.55,3.8-16.45,6.56-29.67,8.28-17.6,2.3-29.27,3.45-35.02,3.45h-134.92V20.26ZM940.28,119.46h33.99c12.19,0,20.67-2.1,25.45-6.3,4.77-4.2,7.16-10.27,7.16-18.2,0-7.36-2.39-13.11-7.16-17.25-4.78-4.14-13.09-6.21-24.93-6.21h-34.51v47.96ZM940.28,218.84h39.85c13.46,0,22.95-2.39,28.47-7.16,5.52-4.77,8.28-11.19,8.28-19.24,0-7.48-2.73-13.48-8.19-18.03-5.46-4.54-15.04-6.81-28.73-6.81h-39.68v51.24Z"/>
    </clipPath>
    <linearGradient id="_新規グラデーションスウォッチ_2-13" data-name="新規グラデーションスウォッチ 2" x1="-25.41" y1="640.11" x2="93.93" y2="640.11" gradientTransform="translate(254.4 266.38) rotate(-90)" xlink:href="#_新規グラデーションスウォッチ_2"/>
    <linearGradient id="_新規グラデーションスウォッチ_1-4" data-name="新規グラデーションスウォッチ 1" x1="128.3" y1="636.33" x2="211.68" y2="651.08" gradientTransform="translate(254.4 266.38) rotate(-90)" xlink:href="#_新規グラデーションスウォッチ_1"/>
    <linearGradient id="_新規グラデーションスウォッチ_7-4" data-name="新規グラデーションスウォッチ 7" x1="-25.41" y1="699.63" x2="64.49" y2="699.63" gradientTransform="translate(254.4 266.38) rotate(-90)" xlink:href="#_新規グラデーションスウォッチ_7"/>
    <linearGradient id="_新規グラデーションスウォッチ_6-4" data-name="新規グラデーションスウォッチ 6" x1="-25.41" y1="793.99" x2="64.49" y2="793.99" gradientTransform="translate(254.4 266.38) rotate(-90)" xlink:href="#_新規グラデーションスウォッチ_6"/>
    <linearGradient id="_新規グラデーションスウォッチ_2-14" data-name="新規グラデーションスウォッチ 2" x1="-25.41" y1="811.77" x2="64.49" y2="811.77" gradientTransform="translate(254.4 266.38) rotate(-90)" xlink:href="#_新規グラデーションスウォッチ_2"/>
    <linearGradient id="_新規グラデーションスウォッチ_2-15" data-name="新規グラデーションスウォッチ 2" x1="124.03" y1="880.92" x2="42.35" y2="807.48" gradientTransform="translate(254.4 266.38) rotate(-90)" xlink:href="#_新規グラデーションスウォッチ_2"/>
    <linearGradient id="_新規グラデーションスウォッチ_5-4" data-name="新規グラデーションスウォッチ 5" x1="149.14" y1="696.9" x2="184.44" y2="770.83" gradientTransform="translate(254.4 266.38) rotate(-90)" xlink:href="#_新規グラデーションスウォッチ_5"/>
    <linearGradient id="_新規グラデーションスウォッチ_2-16" data-name="新規グラデーションスウォッチ 2" x1="173.18" y1="811.62" x2="264.72" y2="811.62" gradientTransform="translate(254.4 266.38) rotate(-90)" xlink:href="#_新規グラデーションスウォッチ_2"/>
    <linearGradient id="_新規グラデーションスウォッチ_4-4" data-name="新規グラデーションスウォッチ 4" x1="245.88" y1="691.22" x2="214.53" y2="640.5" gradientTransform="translate(254.4 266.38) rotate(-90)" xlink:href="#_新規グラデーションスウォッチ_4"/>
    <linearGradient id="_新規グラデーションスウォッチ_3-7" data-name="新規グラデーションスウォッチ 3" x1="14.67" y1="648.78" x2="133.38" y2="760.37" gradientTransform="translate(254.4 266.38) rotate(-90)" xlink:href="#_新規グラデーションスウォッチ_3"/>
    <linearGradient id="_新規グラデーションスウォッチ_3-8" data-name="新規グラデーションスウォッチ 3" x1="157.02" y1="748.35" x2="71.55" y2="705.61" gradientTransform="translate(254.4 266.38) rotate(-90)" xlink:href="#_新規グラデーションスウォッチ_3"/>
  </defs>
  <g>
    <g class="cls-52">
      <g>
        <g>
          <polygon class="cls-51" points="1.66 64.18 120.99 83.8 208.06 160.41 91.56 190.17 1.66 64.18"/>
          <polygon class="cls-11" points="1.66 64.18 1.66 51.51 120.99 83.8 1.66 64.18"/>
          <polygon class="cls-46" points="86.16 74.38 129.39 4.98 1.66 4.98 1.66 51.51 86.16 74.38"/>
          <polygon class="cls-48" points="129.39 4.98 153.61 4.98 187.88 142.66 120.99 83.8 86.16 74.38 129.39 4.98"/>
          <polygon class="cls-9" points="235.28 4.98 187.88 142.66 153.61 4.98 235.28 4.98"/>
          <polygon class="cls-14" points="91.56 190.17 1.66 106.6 1.66 64.18 91.56 190.17"/>
          <polygon class="cls-48" points="81.39 180.72 1.66 180.72 1.66 106.6 81.39 180.72"/>
          <polygon class="cls-13" points="91.56 190.17 1.66 262.35 1.66 180.72 81.39 180.72 91.56 190.17"/>
          <polygon class="cls-37" points="91.56 190.17 53.57 288.47 1.66 288.47 1.66 262.35 91.56 190.17"/>
          <polygon class="cls-39" points="91.56 187.24 137.02 288.47 53.57 288.47 91.56 190.17 91.56 187.24"/>
          <polygon class="cls-12" points="109.88 228.04 291.79 155.67 291.79 124.01 194.45 124.01 187.88 142.66 208.06 160.41 92.74 189.87 109.88 228.04"/>
          <polygon class="cls-47" points="208.06 160.41 251.11 124.01 194.45 124.01 187.88 142.66 208.06 160.41"/>
          <polygon class="cls-47" points="189.46 196.38 291.79 229.74 291.79 155.67 189.46 196.38"/>
          <polygon class="cls-46" points="200.24 225.37 164.69 288.47 291.79 288.47 291.79 257.92 200.24 225.37"/>
          <polygon class="cls-35" points="200.24 225.37 263.19 220.42 291.79 229.74 291.79 257.92 200.24 225.37"/>
          <polygon class="cls-50" points="200.24 225.37 179.31 200.41 189.46 196.38 263.19 220.42 200.24 225.37"/>
          <polygon class="cls-48" points="109.88 228.04 179.31 200.41 200.24 225.37 164.69 288.47 137.02 288.47 109.88 228.04"/>
          <polygon class="cls-10" points="194.45 124.01 198.06 113.1 291.79 17.01 291.79 124.01 194.45 124.01"/>
          <polygon class="cls-49" points="198.06 113.1 235.28 4.98 291.79 4.98 291.79 17.01 198.06 113.1"/>
        </g>
        <g>
          <polygon class="cls-15" points="1.66 64.18 91.56 190.17 120.99 83.8 1.66 64.18"/>
          <polygon class="cls-21" points="120.99 83.8 91.56 190.17 208.06 160.41 120.99 83.8"/>
        </g>
      </g>
    </g>
    <g class="cls-53">
      <g>
        <g>
          <polygon class="cls-51" points="560.94 229.27 441.6 209.64 354.54 133.03 471.04 103.27 560.94 229.27"/>
          <polygon class="cls-33" points="560.94 229.27 560.94 241.93 441.6 209.64 560.94 229.27"/>
          <polygon class="cls-46" points="476.44 219.07 433.21 288.47 560.94 288.47 560.94 241.93 476.44 219.07"/>
          <polygon class="cls-48" points="433.21 288.47 408.99 288.47 374.72 150.79 441.6 209.64 476.44 219.07 433.21 288.47"/>
          <polygon class="cls-43" points="327.31 288.47 374.72 150.79 408.99 288.47 327.31 288.47"/>
          <polygon class="cls-18" points="471.04 103.27 560.94 186.85 560.94 229.27 471.04 103.27"/>
          <polygon class="cls-48" points="481.21 112.73 560.94 112.73 560.94 186.85 481.21 112.73"/>
          <polygon class="cls-42" points="471.04 103.27 560.94 31.1 560.94 112.73 481.21 112.73 471.04 103.27"/>
          <polygon class="cls-34" points="471.04 103.27 509.02 4.98 560.94 4.98 560.94 31.1 471.04 103.27"/>
          <polygon class="cls-32" points="471.04 106.2 425.58 4.98 509.02 4.98 471.04 103.27 471.04 106.2"/>
          <polygon class="cls-27" points="452.71 65.41 270.81 137.78 270.81 169.44 368.15 169.44 374.72 150.79 354.54 133.03 469.85 103.58 452.71 65.41"/>
          <polygon class="cls-47" points="354.54 133.03 311.48 169.44 368.15 169.44 374.72 150.79 354.54 133.03"/>
          <polygon class="cls-47" points="373.14 97.07 270.81 63.7 270.81 137.78 373.14 97.07"/>
          <polygon class="cls-46" points="362.35 68.08 397.91 4.98 270.81 4.98 270.81 35.53 362.35 68.08"/>
          <polygon class="cls-36" points="362.35 68.08 299.41 73.03 270.81 63.7 270.81 35.53 362.35 68.08"/>
          <polygon class="cls-50" points="362.35 68.08 383.28 93.03 373.14 97.07 299.41 73.03 362.35 68.08"/>
          <polygon class="cls-48" points="452.71 65.41 383.28 93.03 362.35 68.08 397.91 4.98 425.58 4.98 452.71 65.41"/>
          <polygon class="cls-31" points="368.15 169.44 364.54 180.35 270.81 276.44 270.81 169.44 368.15 169.44"/>
          <polygon class="cls-49" points="364.54 180.35 327.31 288.47 270.81 288.47 270.81 276.44 364.54 180.35"/>
        </g>
        <g>
          <polygon class="cls-24" points="560.94 229.27 471.04 103.27 441.6 209.64 560.94 229.27"/>
          <polygon class="cls-23" points="441.6 209.64 471.04 103.27 354.54 133.03 441.6 209.64"/>
        </g>
      </g>
    </g>
    <g class="cls-55">
      <g>
        <g>
          <polygon class="cls-51" points="777.22 1.66 757.59 120.99 680.98 208.06 651.23 91.56 777.22 1.66"/>
          <polygon class="cls-38" points="777.22 1.66 789.88 1.66 757.59 120.99 777.22 1.66"/>
          <polygon class="cls-46" points="767.02 86.16 836.42 129.39 836.42 1.66 789.88 1.66 767.02 86.16"/>
          <polygon class="cls-48" points="836.42 129.39 836.42 153.61 698.74 187.88 757.59 120.99 767.02 86.16 836.42 129.39"/>
          <polygon class="cls-45" points="836.42 235.28 698.74 187.88 836.42 153.61 836.42 235.28"/>
          <polygon class="cls-17" points="651.23 91.56 734.8 1.66 777.22 1.66 651.23 91.56"/>
          <polygon class="cls-48" points="660.68 81.39 660.68 1.66 734.8 1.66 660.68 81.39"/>
          <polygon class="cls-40" points="651.23 91.56 579.05 1.66 660.68 1.66 660.68 81.39 651.23 91.56"/>
          <polygon class="cls-3" points="651.23 91.56 552.93 53.57 552.93 1.66 579.05 1.66 651.23 91.56"/>
          <polygon class="cls-2" points="654.16 91.56 552.93 137.02 552.93 53.57 651.23 91.56 654.16 91.56"/>
          <polygon class="cls-26" points="613.36 109.88 685.73 291.79 717.39 291.79 717.39 194.45 698.74 187.88 680.98 208.06 651.53 92.74 613.36 109.88"/>
          <polygon class="cls-47" points="680.98 208.06 717.39 251.11 717.39 194.45 698.74 187.88 680.98 208.06"/>
          <polygon class="cls-47" points="645.02 189.46 611.66 291.79 685.73 291.79 645.02 189.46"/>
          <polygon class="cls-46" points="616.03 200.24 552.93 164.69 552.93 291.79 583.48 291.79 616.03 200.24"/>
          <polygon class="cls-1" points="616.03 200.24 620.98 263.19 611.66 291.79 583.48 291.79 616.03 200.24"/>
          <polygon class="cls-50" points="616.03 200.24 640.98 179.31 645.02 189.46 620.98 263.19 616.03 200.24"/>
          <polygon class="cls-48" points="613.36 109.88 640.98 179.31 616.03 200.24 552.93 164.69 552.93 137.02 613.36 109.88"/>
          <polygon class="cls-29" points="717.39 194.45 728.3 198.06 824.39 291.79 717.39 291.79 717.39 194.45"/>
          <polygon class="cls-49" points="728.3 198.06 836.42 235.28 836.42 291.79 824.39 291.79 728.3 198.06"/>
        </g>
        <g>
          <polygon class="cls-19" points="777.22 1.66 651.23 91.56 757.59 120.99 777.22 1.66"/>
          <polygon class="cls-20" points="757.59 120.99 651.23 91.56 680.98 208.06 757.59 120.99"/>
        </g>
      </g>
    </g>
    <g class="cls-54">
      <g>
        <g>
          <polygon class="cls-51" points="891.03 291.79 910.66 172.45 987.27 85.39 1017.03 201.88 891.03 291.79"/>
          <polygon class="cls-5" points="891.03 291.79 878.37 291.79 910.66 172.45 891.03 291.79"/>
          <polygon class="cls-46" points="901.23 207.29 831.83 164.05 831.83 291.79 878.37 291.79 901.23 207.29"/>
          <polygon class="cls-48" points="831.83 164.05 831.83 139.84 969.51 105.57 910.66 172.45 901.23 207.29 831.83 164.05"/>
          <polygon class="cls-44" points="831.83 58.16 969.51 105.57 831.83 139.84 831.83 58.16"/>
          <polygon class="cls-16" points="1017.03 201.88 933.45 291.79 891.03 291.79 1017.03 201.88"/>
          <polygon class="cls-48" points="1007.57 212.05 1007.57 291.79 933.45 291.79 1007.57 212.05"/>
          <polygon class="cls-41" points="1017.03 201.88 1089.2 291.79 1007.57 291.79 1007.57 212.05 1017.03 201.88"/>
          <polygon class="cls-6" points="1017.03 201.88 1115.32 239.87 1115.32 291.79 1089.2 291.79 1017.03 201.88"/>
          <polygon class="cls-7" points="1014.1 201.88 1115.32 156.43 1115.32 239.87 1017.03 201.88 1014.1 201.88"/>
          <polygon class="cls-28" points="1054.89 183.56 982.52 1.66 950.86 1.66 950.86 99 969.51 105.57 987.27 85.39 1016.73 200.7 1054.89 183.56"/>
          <polygon class="cls-47" points="987.27 85.39 950.86 42.33 950.86 99 969.51 105.57 987.27 85.39"/>
          <polygon class="cls-47" points="1023.23 103.99 1056.6 1.66 982.52 1.66 1023.23 103.99"/>
          <polygon class="cls-46" points="1052.22 93.2 1115.32 128.76 1115.32 1.66 1084.77 1.66 1052.22 93.2"/>
          <polygon class="cls-4" points="1052.22 93.2 1047.27 30.26 1056.6 1.66 1084.77 1.66 1052.22 93.2"/>
          <polygon class="cls-50" points="1052.22 93.2 1027.27 114.13 1023.23 103.99 1047.27 30.26 1052.22 93.2"/>
          <polygon class="cls-48" points="1054.89 183.56 1027.27 114.13 1052.22 93.2 1115.32 128.76 1115.32 156.43 1054.89 183.56"/>
          <polygon class="cls-30" points="950.86 99 939.95 95.39 843.86 1.66 950.86 1.66 950.86 99"/>
          <polygon class="cls-49" points="939.95 95.39 831.83 58.16 831.83 1.66 843.86 1.66 939.95 95.39"/>
        </g>
        <g>
          <polygon class="cls-22" points="891.03 291.79 1017.03 201.88 910.66 172.45 891.03 291.79"/>
          <polygon class="cls-25" points="910.66 172.45 1017.03 201.88 987.27 85.39 910.66 172.45"/>
        </g>
      </g>
    </g>
  </g>
  <g>
    <path class="cls-48" d="M143.89,17.24c27.66,0,48.61,2.53,62.27,7.51,13.59,4.96,25.01,12.76,33.97,23.18,8.72,10.14,15.43,23.12,19.96,38.59l-72.88,13.01c-3.23-9.26-8.58-16.5-15.93-21.51-7.6-5.19-17.4-7.82-29.11-7.82-17.45,0-31.57,6.16-41.96,18.31-10.34,12.09-15.58,31.38-15.58,57.35,0,27.57,5.3,47.59,15.76,59.51,10.5,11.97,25.31,18.04,44.02,18.04,8.84,0,17.39-1.3,25.41-3.86,7.99-2.55,17.26-6.94,27.53-13.06l.63-.38v-25.84h-52.28v-50.03h118.18v105.85c-22.68,15.4-43,26.04-60.43,31.63-17.56,5.63-38.7,8.48-62.84,8.48-29.67,0-54.16-5.11-72.79-15.2-18.6-10.06-33.22-25.26-43.46-45.17-10.27-19.96-15.47-43.21-15.47-69.11,0-27.25,5.69-51.27,16.92-71.4,11.2-20.08,27.85-35.55,49.46-45.96,16.88-8.05,39.97-12.12,68.63-12.12M143.89,15.95c-28.99,0-52.05,4.08-69.18,12.25-21.97,10.58-38.65,26.08-50.03,46.49-11.39,20.42-17.08,44.43-17.08,72.03s5.2,49.46,15.61,69.7c10.41,20.25,25.07,35.48,44,45.72,18.92,10.24,43.39,15.36,73.41,15.36,24.38,0,45.46-2.85,63.23-8.54,17.77-5.69,38.21-16.42,61.33-32.18v-107.83h-120.77v52.62h52.28v23.81c-10.24,6.1-19.32,10.41-27.26,12.94-7.94,2.53-16.28,3.79-25.02,3.79-18.4,0-32.75-5.86-43.04-17.6-10.3-11.73-15.44-31.28-15.44-58.66,0-25.76,5.09-44.6,15.27-56.5,10.18-11.9,23.84-17.86,40.98-17.86,11.5,0,20.96,2.53,28.38,7.59,7.42,5.06,12.68,12.37,15.79,21.91l75.4-13.46c-4.6-16.33-11.47-29.82-20.62-40.46-9.14-10.64-20.65-18.49-34.5-23.55-13.86-5.06-34.76-7.59-62.71-7.59h0Z"/>
    <path class="cls-48" d="M432.62,21.55c23.91,0,42.41,2.07,54.98,6.15,12.43,4.03,22.6,11.62,30.22,22.54,7.63,10.94,11.5,24.48,11.5,40.24,0,13.74-2.96,25.74-8.8,35.66-5.85,9.95-14,18.12-24.24,24.31-6.53,3.94-15.63,7.25-27.06,9.85l-4.51,1.03,4.39,1.47c9.14,3.06,15.87,6.13,20,9.15,2.75,1.98,6.87,6.38,12.25,13.06,5.38,6.69,9.01,11.9,10.81,15.5l36.87,71.4h-85.41l-41.4-76.6c-5.43-10.28-10.19-16.8-14.55-19.95-5.83-4.05-12.53-6.1-19.89-6.1h-8.2v102.66h-75.91V21.55h128.96M379.56,124.04h34.25c3.71,0,10.57-1.14,20.96-3.47,5.47-1.09,9.99-3.92,13.45-8.42,3.44-4.47,5.19-9.67,5.19-15.46,0-8.53-2.77-15.19-8.22-19.79-5.47-4.62-15.28-6.86-29.99-6.86h-35.63v54M432.62,20.26h-130.26v252.93h78.5v-102.66h6.9c7.13,0,13.51,1.96,19.15,5.87,4.14,2.99,8.85,9.49,14.15,19.49l41.78,77.29h88.31l-37.85-73.29c-1.84-3.68-5.49-8.92-10.95-15.71-5.47-6.79-9.63-11.23-12.5-13.3-4.25-3.11-11.04-6.22-20.34-9.33,11.62-2.64,20.77-5.98,27.45-10.01,10.47-6.33,18.7-14.58,24.68-24.76,5.99-10.18,8.98-22.28,8.98-36.32,0-16.1-3.91-29.76-11.73-40.98-7.83-11.21-18.12-18.89-30.88-23.03-12.77-4.14-31.23-6.21-55.38-6.21h0ZM380.86,122.74v-51.41h34.33c14.26,0,23.98,2.19,29.16,6.56,5.18,4.37,7.76,10.64,7.76,18.81,0,5.52-1.64,10.41-4.92,14.67-3.28,4.25-7.5,6.9-12.68,7.94-10.24,2.3-17.14,3.45-20.7,3.45h-32.95Z"/>
    <path class="cls-48" d="M740.48,21.55l94.07,250.34h-79.01l-12.38-40.83-.28-.92h-90.66l-.27.93-12.05,40.82h-76.96l94.09-250.34h83.46M668.42,178.04h59.04l-.51-1.68-27.92-90.92-1.24-4.05-1.23,4.06-27.63,90.92-.51,1.67M741.38,20.26h-85.25l-95.06,252.93h79.8l12.33-41.75h88.73l12.66,41.75h81.84l-95.04-252.93h0ZM670.17,176.74l27.63-90.92,27.92,90.92h-55.54Z"/>
    <path class="cls-48" d="M1007.74,21.55c23.93,0,42.53,5.98,55.28,17.77,12.72,11.77,19.17,26.54,19.17,43.91,0,14.56-4.6,27.22-13.66,37.62-6.03,6.92-15.01,12.49-26.71,16.53l-4.18,1.45,4.3,1.04c17.8,4.28,31.06,11.71,39.41,22.07,8.34,10.36,12.57,23.58,12.57,39.3,0,12.82-3.02,24.5-8.97,34.72-5.95,10.22-14.21,18.42-24.55,24.37-6.37,3.69-16.19,6.42-29.19,8.12-17.44,2.28-29.17,3.44-34.86,3.44h-133.62V21.55h145.01M938.98,120.76h35.28c12.64,0,21.24-2.17,26.31-6.62,5.04-4.44,7.6-10.89,7.6-19.18,0-7.72-2.56-13.85-7.6-18.23-5-4.33-13.67-6.53-25.78-6.53h-35.8v50.55M938.98,220.13h41.15c13.72,0,23.58-2.51,29.31-7.47,5.79-5.01,8.73-11.81,8.73-20.22,0-7.84-2.91-14.24-8.66-19.03-5.68-4.72-15.62-7.11-29.55-7.11h-40.98v53.83M1007.74,20.26h-146.3v252.93h134.92c5.75,0,17.43-1.15,35.02-3.45,13.23-1.73,23.12-4.49,29.67-8.28,10.58-6.09,18.92-14.38,25.02-24.84,6.1-10.46,9.14-22.26,9.14-35.37,0-16.1-4.28-29.47-12.85-40.11-8.57-10.64-21.94-18.14-40.11-22.51,11.96-4.14,21.05-9.77,27.26-16.91,9.32-10.7,13.98-23.52,13.98-38.47,0-17.83-6.53-32.78-19.58-44.86-13.06-12.08-31.78-18.12-56.16-18.12h0ZM940.28,119.46v-47.96h34.51c11.85,0,20.16,2.07,24.93,6.21,4.77,4.14,7.16,9.89,7.16,17.25,0,7.94-2.39,14-7.16,18.2-4.78,4.2-13.26,6.3-25.45,6.3h-33.99ZM940.28,218.84v-51.24h39.68c13.69,0,23.26,2.27,28.73,6.81,5.46,4.55,8.19,10.56,8.19,18.03,0,8.05-2.76,14.46-8.28,19.24-5.52,4.77-15.01,7.16-28.47,7.16h-39.85Z"/>
  </g>
</svg>